<svg xmlns="http://www.w3.org/2000/svg" xmlns:xlink="http://www.w3.org/1999/xlink" id="Layer_1" x="0" y="0" version="1.1" viewBox="0 0 500 500" xml:space="preserve" style="enable-background:new 0 0 500 500"><style type="text/css">.st0{fill:#fff}.st1{fill:#f5853c}.st2{fill:#f3f2f2}.st3{fill:#cdcdce}.st4{fill:#d66c30}.st5{fill:#deb18a}.st6{fill:#f3f4f5}.st7{fill:#386d7f}.st8{fill:#473735}.st9{fill:#332524}.st10{opacity:.2}.st11{fill:#7e6c68}.st12{fill:#ececec}.st13{fill:#f7e39c}.st14{opacity:.16;fill:#d0d1d2}.st15{fill:#2f363e}</style><rect width="500" height="500" x=".3" class="st0"/><g><path d="M341.8,140.2l-3.2,2.6l-0.8,0.7l-17.3,14.3c-0.3,0.2-0.6,0.4-0.9,0.6c-0.3,0.2-0.6,0.4-0.9,0.6 c-4.2,2.2-9.5,1.2-12.7-2.6l-1.5-1.8c-3.1-3.8-3.1-9.2-0.2-12.9c0.2-0.3,0.5-0.6,0.7-0.8c0.3-0.3,0.5-0.5,0.8-0.8l17.2-14.2 l0.8-0.7l3.2-2.7c4.4-3.6,10.9-3,14.5,1.4l1.5,1.8C346.7,130.1,346.1,136.6,341.8,140.2z" class="st1"/><path d="M348.8,80.4c-5.3,21.5-35,53.1-35,53.1l7.1,8.6l7.1,8.6c0,0,36.7-23.2,58.8-24.3l-19-23l0,0l0,0L348.8,80.4z" class="st2"/><g><path d="M320.5,142.2L320.5,142.2l7.1,8.7c0,0,36.7-23.2,58.8-24.3l-18.9-22.9L320.5,142.2z" class="st3"/></g><path d="M325.4,140.5l15.9,21.6l0,0l8,10.8l0,0l5.8,7.8c2.5,3.3,1.5,5.2,0.8,5.8l-4.5,4.1c-1.5,1.2-3.7,2.9-7-2l-5-7.4 l0,0l-2.5-3.6l-5.2-7.5l0,0L317.9,150c-0.8-0.7-0.8-2.1-0.1-2.9l5-6.3C323.5,139.9,324.6,139.8,325.4,140.5z" class="st1"/><path d="M375.7,108.7l5.2-4.3c0.2-0.2,0.3-0.5,0.1-0.7l-7.3-5.6l-4.2-8.2c-0.2-0.2-0.5-0.3-0.7-0.1l-5.2,4.3 c-0.2,0.2-0.3,0.5-0.1,0.7l11.5,13.9C375.2,108.8,375.5,108.9,375.7,108.7z" class="st4"/><path d="M340.6,145.3c-0.3,0.1-0.6,0.3-1,0.5c-5,2.7-16.6,11.8-18.7,13.4c-0.1,0.1-0.2,0.1-0.2,0.2c0,0,0,0,0,0 c0,0-0.1,0.1-0.1,0.1l-0.9-1.1l-7.2-9l-7.4-8.5l-1.2-1.4c0,0,13-11.4,16.9-16.3c0.3-0.3,0.5-0.6,0.7-0.9l2.5,2.8l7.2,8.3l0,0 l0.2,0.2l0.1,0.2l0,0l7.2,9L340.6,145.3z" class="st4"/><path d="M390,123.2c0.8,1,0.7,2.4-0.3,3.2l0,0c-1,0.8-2.4,0.7-3.2-0.3l-37.5-45.3c-0.8-1-0.7-2.4,0.3-3.2l0,0 c1-0.8,2.4-0.7,3.2,0.3L390,123.2z" class="st1"/><path d="M345.6,153.4c0,0.1-0.1,0.2-0.1,0.3c0,0,0,0,0,0.1c-0.1,0.3-0.3,0.5-0.5,0.8c0,0,0,0,0,0 c-0.3,0.4,0.1,1.1,0.6,1.1c0.9,0.1,1.7,0.6,2.3,1.2c1.2,1.2,1.4,2.6,1.1,4.1c-0.1,0.4-0.2,0.8-0.4,1.2c0,0,0,0.1-0.1,0.1 c-0.1,0.2-0.2,0.4-0.3,0.5c0,0,0,0,0,0c-0.3,0.6,0,1.3,0.6,1.4c0,0,0,0,0.1,0c1.6,0.1,2.7,1.1,3,2.7c0.3,1.3,0.2,2.6-0.4,3.8 c-0.1,0.2-0.2,0.3-0.3,0.5c-0.3,0.4-0.3,0.6-0.1,1c0.2,0.3,0.4,0.4,0.7,0.5c0.9,0.1,1.6,0.4,2.2,1c0.5,0.5,0.7,1.1,0.8,1.7 c0.2,1,0.1,2-0.2,2.9c-0.1,0.5-0.6,1.4-1,2c-0.2,0.4-1.1,1.3-1.3,1.5c-0.8,0.9-1.6,1.7-2.5,2.5c-2.8,2.7-5.5,4.9-8.2,6.7 c-8.2,5.6-14.9,7.4-16.1,7.7c-0.3,0.1-1.6,0.1-1.9,0.3c0,0-0.2,0.1-0.4,0.1c0,0-0.1,0-0.1,0l-15.2-21.5c0,0,0,0,0-0.1 c0,0,0-0.1,0-0.1c0.2-0.7,0.5-1.4,0.7-2.1c0-0.1,0-0.1,0.1-0.2c0,0,0-0.1,0-0.1c0.3-1.2,0.7-2.2,1.1-3.1c0,0,0,0,0-0.1 c1.9-3.8,5.1-5.3,6.3-6c0.1,0,0.1-0.1,0.2-0.1c2.1-1.4,4.7-3.6,6.5-5.2c1.3-1.1,2.2-2,2.3-2c0.8-0.6,1.7-1.2,2.6-1.9 c4.4-3.1,9.8-7,10.6-7.5c0.6-0.4,1.2-0.9,1.9-1.3c1.1-0.7,2.6-0.8,3.9,0.3C345.9,149.5,346.3,151.6,345.6,153.4z" class="st5"/><path d="M325.1,201.8c0.9,1.2,0.7,2.8-0.5,3.6l-7.4,5.2c-1.1,0.8-2.7,0.4-3.6-0.8l-19-26.9c-0.9-1.2-0.7-2.8,0.5-3.6 l7.4-5.2c1.1-0.8,2.7-0.4,3.6,0.8L325.1,201.8z" class="st6"/><path d="M317.8,202.9c0.7,0.9,0.4,2.2-0.5,2.9s-2.2,0.4-2.9-0.5c-0.7-0.9-0.4-2.2,0.5-2.9 C315.9,201.7,317.2,202,317.8,202.9z" class="st7"/><polygon points="294.7 182.9 313.2 209 256.8 248.7 237.7 223.1" class="st8"/><polygon points="294.7 182.9 303.2 194.8 245 235.8 236.7 223.8" class="st9"/><path d="M381.7,213.7H112.3c-7.3,0-13.3,6.7-13.3,15.3v148.1v17.8c0,4.7,6,8.8,13.3,8.8h99.3 c-2.1,7.6-4.2,13.2-6.3,17.8l-7.2,0c-0.9,0-1.8,0.4-2.4,1c-2.4,2.3-1.8,6.1-1.4,7.5c0.4,1.7,1.2,2.9,2,2.9h101.2 c0.8,0,2.1-1.2,2.7-2.8c0.5-1.4,0.6-3.3-0.8-6.9c-0.3-0.9-1.2-1.5-2.1-1.5l-9-0.2c-2.1-4.6-3.8-10.2-5.9-17.8h99.1 c7.3,0,13.6-4.1,13.6-8.8v-17.8V229C395.4,220.5,389,213.7,381.7,213.7z" class="st10"/><path d="M277.1,393.7h-29.6h-0.6h-29.6c0,0-7.6,29.6-10.6,32.6h40.2h0.6h40.2C284.7,423.4,277.1,393.7,277.1,393.7z" class="st11"/><path d="M298.2,427.5c0,1.7-0.7,3.1-1.5,3.1h-99.1c-0.8,0-1.5-1.4-1.5-3.1l0,0c0-1.7,0.7-3.1,1.5-3.1h99.1 C297.5,424.4,298.2,425.8,298.2,427.5L298.2,427.5z" class="st12"/><path d="M102.3,376v17.4c0,4.6,5.9,8.6,13,8.6H379c7.1,0,13.4-4,13.4-8.6V376H102.3z" class="st12"/><path d="M392.4,231c0-8.4-6.3-15-13.4-15H115.3c-7.1,0-13,6.6-13,15V376h290.1V231z" class="st11"/><path d="M380.2,239.3c0-7.3-5.5-12.9-12-12.9H126.1c-6.5,0-12,5.6-12,12.9v126.3h266.1V239.3z" class="st13"/><circle cx="247.7" cy="390.8" r="6.8" class="st11"/><path d="M380,336.7L195.8,226.6h172.2c6.6,0,11.9,5.3,11.9,11.9V336.7z" class="st14"/><g><path d="M215.3,312.5c-1.7-0.4-1.8,0.1-2-0.8c-0.2-0.9-1.4-0.9-2.4-0.9c-1.1,0-1.4-0.1-2.3-0.8 c-0.9-0.7-2.7-0.8-3.3-1c-0.6-0.2-0.3-1.7-1.4-3.1c-1.2-1.4-3.6-1.7-5.1-2.4c-1.5-0.8-1.1-3.8-3.3-3.6c-2.2,0.3-2.4,1-4.4,0.1 c-2-1-3.4-1.6-4.4-0.9c-1.1,0.7-2.4,2-3.1,2.4c-0.7,0.3-1.8-0.3-2.5-0.2c-0.7,0.1-1.4-0.6-1.9-1.2c-0.5-0.6,0.9-3.7-0.4-3.7 s-2.9-0.5-2.9-1c0-0.4,2.6-3.1,1.8-3.5c-0.8-0.4-2.3-0.2-3.7,1.5c-1.4,1.7-2.6,1.6-3.3,1c-0.7-0.6-2.2-4.2-1-6.2 c1.3-2,2.9-3.2,4.5-3.1c1.5,0.1,2.2-0.3,3.7-0.4c1.5-0.1,3,0.6,3.4,1.1c0.4,0.5-0.4,1.4,0.6,2.4c1,1,1.5,0.6,1.6,1 c0.1,0.4-0.8,0.9-1.2,0.9s-3.6,0.8-2.3,1.3c1.3,0.5,3.5,0.1,4,0.8c0.5,0.7-1.5,2.2,1.4,2.3c2.9,0.1,4.8,0.4,6.5,0.5 c1.6,0.1,2.8,0.2,3,0.5c0.2,0.3,1.3-1.3-1.4-1.3c-2.7,0-4.8-1.4-6.3-1.7c-1.4-0.3-2.4-1.1-2.5-2.2c-0.1-1,0.1-1.8-0.5-2.7 c-0.6-0.9-2-3-0.7-3.8c1.4-0.9,4.1-2.5,4.7-3.7c0.7-1.1,0.7-1.4,2.2-2.3c1.5-0.9,3.4-2,4.2-2.8c0.9-0.8,2.3-2,2.6-1.4 c0.3,0.6,1.6,0.8,3.3,0.3c1.6-0.5,3.7-1.8,1.9-1.8c-1.7,0-2.8-0.4-2.3-1c0.5-0.6-1.2-0.9-1.6-0.8c-0.5,0.1-0.5-0.9,1.2-1.1 c1.6-0.3,0.3,1.3,1.7,1.2c1.3-0.1,2.2-1.3,3.2-1.5c1-0.2,1.3,0.6,0.1,1.4c-1.3,0.8-1.6,0.5,0,0.9c1.6,0.3,2.1,1.1,3.1,0.3 c1-0.8-0.2-1-0.3-2.1c-0.1-1,0.7-3.1-0.4-3.8c-1.1-0.7-1.6-1.4-1.6-2.1c0-0.7,0.2-2.2-0.9-1.5c-1.1,0.7-1.9,1.1-2.3,0.8 c-0.4-0.3,0.2-1-0.7-1.6c-0.9-0.5-1-1.3-2-1.2c-1.1,0.1-2.1-0.7-2.7,0.4c-0.6,1.1-1.2,2.1-1.4,2.4c-0.2,0.3,0.7,1.6-0.1,2.2 c-0.8,0.6-2.9,1.5-3.2,2.1c-0.3,0.6-1.4,2.2-1.7,1.1c-0.3-1,1-2.6-0.8-3.1c-1.7-0.4-3.1-0.1-3.4-1c-0.3-1-1.1-1.8,0.7-2.6 c1.7-0.8,3.5-2.2,5.1-2.4c1.6-0.2,0.5,1,1.8,1c1.3-0.1-0.2-0.7,1.4-1c1.6-0.3,1.4-0.3,0.9-0.8c-0.5-0.5-0.2-0.6,1.1-1.1 c1.3-0.5,0.3-0.9,1.5-1.3c1.3-0.4,1.5-0.9,2.2-0.9c0.7,0,0.6,0.3,0.2,1c-0.4,0.8-0.7,1.3,0.5,0.8c1.2-0.5,1.7-0.9,0.9-0.1 c-0.9,0.8-1.4,0.8-2.7,1c-1.3,0.2-0.9,0.3-0.3,1c0.6,0.6,2,0.7,2.5,1c0.5,0.3,1.1,1.6,2.2,1c1.2-0.6,0.3-0.7,1.8-1.3 c1.5-0.6,3.8-1,3.6-1.7c-0.2-0.8-1.7-1.2-1.9-2.2c-0.2-1,2.1-1.5-0.9-1.9c-3-0.4-1.3-0.8-2.7-0.8c-1.4,0-4.1,0-5.1,0.4 c-1,0.4-1.5-0.3-2,0.4c-0.5,0.7,0.1,1.7-0.4,1.7c-0.5,0-1.4,0.7-1.7,0c-0.4-0.7-1.3-1.4-0.1-1.7c1.2-0.3,1.4-0.1,1.5-0.9 c0.2-0.8-1.6-0.7-0.6-0.9c1.1-0.2,1.5,0.1,3,0.1c1.4,0,4.7,0.5,5.2-0.3c0.5-0.8-0.8-0.8-2.2-0.9c-1.4-0.1-4-0.5-5-0.1 c-1.1,0.4-2.4,1.1-2.9,1.8c-0.5,0.7-0.5-0.2-1.4,0c-1,0.2-2.6,1.1-1.7,1.7c0.9,0.5,0.9,1.1-0.1,1.1c-1,0-1.3,0.9-1.9,0.9 c-0.7,0-2.5-0.1-1.6-0.5c0.9-0.4,1.8-0.4,1.7-1.5c-0.1-1,1-1.4,1-1.7c0-0.3-2.3,0.8-4.1,0.3c-1.8-0.5-2.6-1.3-4.4-1.2 c-1.8,0.1-4.2,2.3-3.1,2.4c1.2,0.2,2-0.2,2.2,0.3c0.2,0.5-0.2,1,0.5,1.2c0.7,0.3,1.9,1,0.3,0.6c-1.6-0.3-0.9-1-3.4-1 c-2.5-0.1-4.1-0.8-6.7-0.2c-2.6,0.6-2.2,1.1-4,0.6c-1.7-0.5-5.9-2.5-8.8-2c-2.9,0.5-5.9,2.1-6.8,2.7c-0.9,0.5-1.3-0.8-2.9-0.7 c-1.5,0.1-5.2-0.4-4.5,0.4c0.8,0.9,1.7,1,0.6,1.1c-1.2,0.2-2.7,0.3-3.3,1c-0.6,0.8-2.7,1.2-1.4,1.6c1.4,0.3,3.6,1.1,2.6,1.2 c-1,0.1-5.9,1.8-8,2.3c-2.1,0.4-2,5.4-0.2,4.8c2.3-0.8,6.7-5.4,7.9-5.8c1.2-0.4,1.6-0.1,1.5,0.5c-0.1,0.6,1.4-0.3,2.5-1 c1.2-0.8,1.5-2.6,2.4-2.1c1,0.5,1.2,0.3,2,0.1c0.8-0.2,4.6,1,5.2,1.4c0.7,0.4,1.6,1.3,2.1,1.7c0.5,0.3,0.7,1.1,0.2,1.2 c-0.5,0.1-0.6,0.5-0.5,1.2c0.1,0.7,0.5,1.3-0.5,1.5c-1,0.2-0.8,1.2-0.2,1.1c0.6-0.1,1-0.3,1.1-0.9c0.1-0.5,1.3-1.5,1.2-0.8 c-0.2,0.7-0.7,1.4-0.7,1.9c0,0.5-0.7,0.4-0.8,1c-0.1,0.5,0.1,0.5,0.6,1c0.5,0.4,0.2,0.7,0.1,1.7c-0.1,1-3,3.6-3.4,4.4 c-0.4,0.9-0.2,2.1-0.2,3.1c0,1-0.4,2.2,0.7,2.5c1.1,0.3,1.2,0.5,1.2,1.4c0,0.9,0,1.9,0.6,2.5c0.6,0.6,0.3,0.5,0.3,1.5 c0,1,0.7,0.4,0.8,1.2c0.1,0.8-0.5,1.1,0.5,1.7c1,0.6,2,1,1.5,0.1c-0.5-1-0.8-1.7-1.3-3.1c-0.5-1.4-0.8-3.9-0.2-3.1 c0.6,0.8,1.4,3.1,2.2,4.8c0.9,1.7,1.9,1.5,1.9,2.7c0,1.2-1.1,2.4,1.1,3.1c2.1,0.8,3.7,2.4,4.9,2.3c1.3-0.2,2-0.9,2.5-0.1 c0.5,0.8,1.5,1.8,2.7,1.8c1.2,0,1.5,0.7,1.7,1.7c0.2,1,1,1.2,2.1,1.6c1.2,0.3,1.4,1.5,2.3,1.4c0.9-0.1,2-0.4,2,0.3 c0,0.8,0.4,2.7-1.1,3.9c-1.4,1.2-2.1,2.1-1.3,2.9c0.8,0.8,0.1,1.6-0.3,2.2c-0.4,0.6,0.3,1.1,1.1,2.1c0.8,1,1.8,2.1,2.5,4 c0.7,1.9,1.6,2.6,3.3,3.2c1.6,0.6,2.9,1.7,2.9,3.1c0,1.5-0.1,6.5-0.1,8c0,1.5,0.9,3,0.6,4.1c-0.3,1.1,0,2.1,0.4,2.5 c0.4,0.4,0.3,1.4,0.4,2.4c0.1,1,1.3,0.3,1.3,1.1c0,0.9-0.5,2.2,0.1,2.6c0.6,0.4-0.7,2,1.9,3.5c2.6,1.5,2.8,1.6,3,1.8 c0.2,0.3,1.1-0.5,1.1-0.1c0,0.4-1.4,3,1.3,3c2.7,0,4.3-0.9,2.7-2c-1.6-1.1-2.6-0.6-2.9-1.7c-0.3-1.1-0.7-1-0.9-1.7 c-0.2-0.8,0.7-1.1,0.4-1.9c-0.3-0.8-1.7-0.9-1.6-1.7c0.1-0.8,1-1.5,1.2-1.8c0.2-0.3,0.2-0.7-0.3-1c-0.5-0.4-0.4-0.4,0.3-0.6 c0.7-0.2,0.8,0.1,1.1-0.8c0.3-0.9,1.2-0.8,1.5-1c0.4-0.3,1.7-0.6,1.3-1.7c-0.5-1.1-1.8-1.8-0.7-1.8c1.1,0,2.4,0,3.1-1.2 c0.7-1.2,0.4-1.5,1.2-2.4c0.8-1,0.4-1.8,0.4-2.5c0-0.7,0.1-1.3,1.1-1.8c1.1-0.4,4.5-1,5-2.3c0.5-1.3,1-2.7,0.8-4.1 c-0.2-1.4-0.3-2.3,0.8-3.4c1.1-1.1,2.4-2.1,2.4-3.1C216.6,314.4,217.1,312.9,215.3,312.5z" class="st15"/><path d="M233.4,253.5c1.1-1,0.8-1.6,2.2-2.1c1.4-0.5,1.1-1.2,0.9-2.3c-0.2-1,0.6-0.6,1.2-1c0.6-0.3,0.9-0.6,2.2-0.7 c1.4-0.1,0.1-0.5,0.1-1c0-0.5-1-0.4-2.3-0.3c-1.4,0.2-1.2,0-2.1-0.3c-1-0.3-6.7-0.3-8.1-0.3c-1.4,0-4.1,0.3-5.4,0.3 c-1.4,0.1-1.3,0-3.9-0.3c-2.6-0.3-9.5-0.1-12,0.2c-2.5,0.3-3.9-0.4-5.6,0.6c-1.6,1-2.4,0.5-4.2,0.7c-1.8,0.2-3.1-0.3-4-0.3 c-0.9,0-0.8-0.4-2.3,0.1c-1.5,0.5-1.1,0.9-1.6,0.2c-0.6-0.7-1.4,0-4.1,0.6c-2.7,0.6,1.3,2.7,2.2,3c0,0,1.8-0.1,2.9-0.3 c1.1-0.3,1.5,0.3,2.2,0.2c0.7-0.2,0.9-0.8,4.7-1.6c3.9-0.8,6.6-0.2,8.1,0.4c1.5,0.6,1.5,0.3,2.9-0.5c1.4-0.8,3.7-1.4,6.1-1.7 c2.4-0.3,0.9,0.4-0.7,1c-1.5,0.5-2.9,0.3-2.6,1.2c0.3,0.9,3.3,0.6,4.1,0.6c0.9,0,1,1.2,1.1,1.9c0.1,0.7-0.1,1,0.1,1.7 c0.2,0.7,0.7,0.6-0.2,1.3c-0.9,0.7-1.4,0.6-1.4,1.8c0,1.2,0.6,2.5,1.9,3.4c1.3,0.9,2.1,1,2.9-0.4c0.8-1.4,2.6-2.3,3.6-2.7 c1-0.4,2.3,0,3.6-1c1.3-1,2.9-0.6,4.7-1.1C232.5,254.2,232.3,254.5,233.4,253.5z" class="st15"/><path d="M235.1,258.4c-2.9,0.3-5.6-0.5-5.1,0.9c0.5,1.4,0.7,4,2.2,3.6c2.7-0.7,5-1.7,4.4-2.8 C235.9,259,238,258.1,235.1,258.4z" class="st15"/><path d="M253.7,251.7c0.1,0,0.2,0,0.3,0.1c1,0.3,1.6-0.2,1.7-0.9c1.1-1.4,0.7,1.1,1.8,0.7c1.2-0.4,2.8-1.5,4.1-2.1 c1.4-0.6-1.6-0.3-4.1-0.7c-2.4-0.3-5.8,0.3-6.8,0.9C250,250.3,252.3,251.4,253.7,251.7z" class="st15"/><path d="M268,248.1c0,0-0.5,0.6,0.7,0.6c1.2,0,3.6-0.7,5.5-0.7c1.9,0,1.4-0.6,1-0.6c-0.4,0-1.4-1-3-0.9 c-1.5,0.1-1.4,0.7-2.4,0.7c-1,0-0.8-0.3-2.8-0.2C264.9,247.2,266.9,247.9,268,248.1z" class="st15"/><path d="M358.8,253.1c-0.2-1-0.1-2.9-3.3-2.8c-5.8,0.3-7.2-0.2-8.3-0.2c-1.1,0-0.5-0.7,0.3-0.7c0.8,0,0.7-0.8,0-1.1 c-0.8-0.3-1.8-0.1-2.1,0.7c-0.3,0.8,1.1,1-1.1,1c-2.2,0-5.2,2.9-7.8,2.5c-2.6-0.4-3.4-2-5.6-2.1c-2.2-0.1-4.1,1.9-6.4,1.9 c-2.3,0-1.5-0.8-2.5-1.7c-1-1-1.4-0.7-4.3-0.7c-2.9,0-1.4,1-0.8,1.2c0.6,0.2,2.1,0.6,3.2,1.5c1.1,0.9-1.9,0.5-3.2,0.6 c-1.3,0.1-1.2-0.6-2.6-1.4c-1.5-0.8-5-0.3-7-0.4c-2-0.1-2.1,0-2.9-1.3c-0.8-1.3-2.4-0.6-4.5-0.6c-2.1,0-3.3-1-4.3-1.6 c-1.1-0.6-2.7-0.7-5-1c-2.3-0.3-1.1,1.3-0.2,1.4c0,0,1,0.3,1.9,0.4c1,0.1,3,0.2,4.1,1.3c1.1,1.1-3.3,0.7-5.2,1.7 c-1.9,1-3.5,0.5-4.8,1c-1.4,0.5,0.7,1.4,1.2,2.5c0.5,1.1,0,1.1-0.9,1.4c-0.9,0.3,0.3-1.2-0.1-1.7c-0.4-0.4-1.8-2.7-3-3.4 c-1.2-0.7-1,0.6-0.8,1.6c0.2,1,0.5,1,0.8,1.7c0.3,0.7-1.3,0-2-0.5c-0.8-0.5-3.3,0.7-4.4,0.2c-1.2-0.5,0.4-0.3,0.4-0.9 c0-0.5-1.4-0.1-1.7-0.9c-0.4-0.8,2.4-1.7,4.2-2c1.7-0.3,1.5-0.3,1.5-1c0-0.8-3.1-0.5-5.7,0.6c-2.6,1.1-1.9,1.9-2.3,2.7 c-0.4,0.8,0.9,0.9,1.4,1.3c0.6,0.4-0.7,0.6-1.8,1c-1.2,0.3-1.4,0-2.8,0.4c-1.3,0.4-0.6,1-1.7,1.4c-1.2,0.4-1.1,0.4-2,0.8 c-1,0.3,0.2-1.3,1.5-1.5c1.3-0.2,1-0.9,0.6-1.1c-0.4-0.3-2.9-1-5.6-1.7c-2.7-0.7-7,0.3-8.5,0.9c-1.4,0.6-1.4,1-1.5,1.9 c-0.2,0.9-3.5,2.2-5.1,3c-1.6,0.8-0.2,1.8,0.3,2.5c0.5,0.7,1.5,0.3,2.9,0c1.4-0.4,1.2,1.1,1.4,1.7c0.2,0.5,1,0.6,2.2,0.1 c1.3-0.5,1-1.7,1-2.4c0-0.7-0.3-1,0.6-2c0.9-1,1.6-1.6,2.4-2c0.8-0.4,0.7,0.3-0.5,1.2c-1.2,0.9-0.4,1.1,0.2,2.2 c0.6,1,1.7,0,3.2-0.2c1.4-0.2-1.3,1.1-2.3,1.1c-1.1,0,0,1-0.7,1c-0.7,0-0.8,0.4-0.9,1.5c-0.1,1-0.5,0.8-1.3,1 c-0.8,0.3-1.9,0.3-3.2,0.1c-1.3-0.3-1.2-1.3-2-2c-0.9-0.7-1.1,0.3-1.1,0.8s-0.9,1.4-1.3,1.4c-0.4,0-1.5,1-2.2,1.9 c-0.7,0.9-1.2,0.3-1.3,0s0.5-0.9,0.1-1.7c-0.4-0.9-1.9-1.6-1.4-3.6c0.5-2-0.6-1-2.1-0.8c-1.5,0.2-2,0.8-2.1,1.3 c-0.1,0.5-1,1.6-1.9,2.5c-1,1-0.3,1.7,0.2,2.8c0.5,1,1.7-0.3,2.1-1.2c0.4-0.9,0.9-1.3,1.4-0.9c0.6,0.4-0.9,1.2-1.1,2.3 c-0.2,1,0.4,1,1.7,0.6c1.3-0.3,0.7-0.6,1.7-0.2c1.1,0.4-1,0.8-2.2,0.9c-1.3,0.1-0.8,0.9,0.3,1.6c1.1,0.7,0.6,1.7-0.1,1.8 c-0.7,0.1-1.9,0.3-3.9,0.6c-1.9,0.3-0.2,1.7-0.6,2.5c-0.4,0.8-0.5,2.5,0.4,2.6c0.9,0.1,0.9,1.4,0.4,1.8c-0.5,0.4-0.6,0.9-1.7,1.7 c-1.2,0.8-0.3,1.5-0.7,2.5c-0.4,1-1.4,0.4-2.5,1.6c-1.2,1.1-1.6,2-2.5,3.3c-0.9,1.3-1,1.4,0.1,3c1.1,1.6,0,2-0.9,3.4 c-0.9,1.4,0.3,1.5,0.7,2.7c0.4,1.2,1.2,1,1.4,2.2c0.3,1.2,0.7,1.6,2,2.4c1.4,0.9,2.7,2.1,3.4,1.8c0.7-0.3,1.7-1,4-0.9 c2.2,0.1,1.4-0.9,3.8-1.2c2.3-0.3,0.3,0.5,0.6,1.1c0.3,0.6,2.3,1,4,1.1c1.7,0.1,0.3,2,0.2,3.2c-0.1,1.2,0,1.2,0.9,2.3 c0.9,1,2,3.4,2.3,4.6c0.3,1.2-0.3,2.6-1.1,3.8c-0.8,1.1-0.5,3.7,1.2,5.7c1.6,1.9,0.7,1.8,0.7,3.8c0,2,1.2,1.7,2,2.8 c0.9,1.1,0.5,3.2,1.3,4.4c0.8,1.1,2.1,0.1,3.7-0.4c1.5-0.5,2.2-0.3,4.1-1.6c1.8-1.2,3.3-3.7,3.3-4.4c0-0.7,0.6-1,1.5-1.3 c1-0.3,0.8-2.6,0.7-3.2c-0.1-0.6,0.2-1.1,0.6-1.5c0.4-0.3,2.8-2.4,3.7-3.3c0.9-0.9,0.1-2.1-0.1-3.5c-0.2-1.4-0.8-1.9-0.8-3.6 c0-1.7-0.6-1.5,2.6-4.2c3.2-2.7,6.2-7,6.5-7.9c0.3-1,0.2-1.7,0-2.4c-0.2-0.7-4.3,0.7-5.3,0.7c-1,0-3.4-1.9-3.6-2.6 c-0.2-0.7-0.9-1.5-2.2-2.5c-1.3-1-0.3-2.5-1.3-3.7c-1-1.1-1.4-2.8-1.6-3.8c-0.2-1,1.4,0.7,2.7,2c1.3,1.3,2.9,3.8,3.4,4.6 c0.5,0.9,0.9,2.2,1,3.2c0.1,1,0.9,1.2,2,1.1c1.2-0.1,5.2-2,6.7-2.6c1.4-0.6,3.2-2.4,3.9-4.2c0.7-1.7-1.4-1.5-2.4-2.4 c-1-0.9-1,0-2.1,0.3c-1.2,0.3-2.1-1.1-4-2.7c-1.8-1.6-0.7-1-0.3-1.4c0.4-0.3,2.2,0.8,3.3,1.9c1.1,1.1,1.3,0.7,2.5,0.7 c1.3,0,1.5,0.5,3.2,1c1.6,0.4,2.5-0.2,3.9,0c1.4,0.1,1.2,0.7,2.2,2.1c1,1.4,0.6,1,2.7,1.1c2.1,0.2,0.6,0,0.6,1.2 c0,1.2,0.2,1.7,1.5,3.1c1.3,1.5,1.7,4.3,2.1,5.7c0.4,1.4,1.2,0,2.4,0c1.3,0-0.4,1.3,1.1,2.4c1.6,1.2,1.5-0.5,1.5-1 c0-0.5-0.5-1.8-1.1-2.2c-0.6-0.4-1.4-0.3-0.7-1c0.7-0.7-0.8-1.1-0.8-2.1c0-1,0.4-2.3,0.9-2.7c0.5-0.4,2.8-1.7,3.9-2.8 c1.1-1.1,1.9-1.3,3.4-1.2c1.4,0.1,0.3,0.3,1.2,1.3c0.9,1,1.1,2.5,2,3.6c1,1,1.1-0.2,1.8-0.5c0.8-0.3,0.3,1,0.9,2.1 c0.6,1,0.2,2.4,0.2,3.4c0,1,1.3,1.9,2,2.8c0.8,0.9,0.5,1.3,0,1.7c-0.5,0.3-1.4-0.9-2.2-1.6c-0.8-0.7-1.9-0.3-1.2,0.5 c0.8,0.8,1.3,2.2,2.1,3.7c0.9,1.5,2.7,3.2,4,4.8c1.3,1.6,5.3,2.3,6.8,2.3c1.5,0,4.6,1.2,6.2,1.4c1.5,0.2,2.7,0,3.8-0.5 c1.1-0.5,0.6-1.1,0.5-1.4c-0.1-0.3-0.9,0.3-1.9,0.4c-1.1,0.2-1.3,0.2-2.7,0.3c-1.3,0.1-0.5-0.4-1.9-0.5c-1.4-0.1-2.9-0.3-4.5-0.9 c-1.6-0.5-2.5-1-3.7-1.3c-1.2-0.3-0.1-1-0.2-2.4c-0.1-1.5-1.2-0.9-2-1.4c-0.9-0.5-0.6-1.7-0.2-1.3c0.4,0.3,0.5,0.8,0.5-1 c0-1.8-1.8-3.1-3-4.6c-1.2-1.6-1-2.4-0.9-3.2c0.1-0.8,2.1,0.7,3.2,1.8c1.1,1.1,1.1,1.1,1.6,0.9c0.6-0.3,2.3-1.1,2.7-2.5 c0.4-1.4-3.1-4.2-3.6-5.5c-0.5-1.3,0.7-0.5,1.3-1.4c0.6-0.9,1.3,0.3,0.9,1c-0.4,0.6,0.1,1,0.5,1.6c0.4,0.6,0.4,0,0.8-0.8 c0.4-0.8,0.1-1,0.8-1.6c0.7-0.5,3.3-1.2,4-1.8c0.7-0.6,1.2-1.3,2-3.5c0.9-2.2-0.1-2.1-0.5-2.9c-0.4-0.8-1.5-2.1-2.2-2.9 c-0.7-0.8-0.1-0.6,0.4-0.9c0.5-0.3,0.1-0.9-1.1-1.2c-1.2-0.3-1,0.4-2,0.2c-1.1-0.2-0.5-0.9,0.7-2.1c1.2-1.2,0.6,0.3,1.3,0.8 c0.8,0.5,1-0.4,1.5-0.2c0.6,0.3,1.7,0.8,2.6,1.8c0.9,1,0.9,2.6,1.7,2.5c0.9-0.1,0.9-0.7,1.3-1.5c0.4-0.8-0.9-1.6-1.6-2.2 c-0.7-0.6-1.5-0.5-1-1c0.6-0.5,0.1-1.3,0.4-1.9c0.3-0.6,1.4-0.3,2.4-0.7c1.1-0.4,1.2-1.9,1.2-3.5c0-1.6-0.9-2.3-1.3-2.8 c-0.5-0.5,0.6-0.3,1.4,0.3c0.9,0.6,2.2,3.9,2.5,5.2c0.3,1.3,0.1,1.3,1.3,2.4c1.2,1.1,0.8,1,0.4,2.3c-0.4,1.3-1.3,1.7-2.8,2 c-1.4,0.3-1,0.6-1.8,1.9c-0.9,1.3,0.5,1.4,1.3,1.7c0.8,0.3,0.9-1.1,1.8-1.7c1-0.6,2.3-0.9,4-0.9c1.6,0-0.5-2-0.6-3.1 c-0.1-1-0.2-1.7-0.6-2.5c-0.4-0.8,0.4-0.8,1.5-1.3c1.2-0.5,1.1-1.6,0.4-1.6c-0.7,0-1.3,0.4-2.8,0.3c-1.5-0.1-1.2-1.2-1.5-1.7 c-0.4-0.4-0.9-1.4-1-2.2c-0.1-0.8-1.4-1.8-2.4-2.6c-1-0.8-1.5-1.3-1.5-1c0,0.3-0.6-0.1-1.9-0.2c-1.3-0.1-1.6,0.2-2.8,0.1 c-1.2-0.1,0.1-1.8,0.6-3.1c0.5-1.2,1.8-0.5,2.9-0.5s4.8-4.2,6.3-3.8c1.5,0.3,0.9-0.9,1.2-1.8c0.3-1,1-0.4,1.8-0.1 c0.9,0.3,1.2,0.4,1.2-0.3c0-0.8,0.8-1,1.4-0.3c0.3,0.3,0.3,0.9,0.1,1.4c-0.3,0.9-0.4,1.9-0.2,2.8c0.1,0.9,0.4,1.9,0.9,2.1 c1.1,0.5,0.6,3.4,1.9,4.2c1.3,0.8,0.9-1.3,0.9-2.8c0-1.5-0.6-4-1.5-5.4c-0.9-1.4-0.3-0.8,1.3-0.8c1.6,0,1.7-0.5,2.1-1 c0.4-0.4,0.7-0.5,2.1-0.5c1.4,0,0.6-0.5-0.1-1.2c-0.7-0.7-2-0.5-1.5-1c0.5-0.4,3.1,0.3,4.3,0.7C359.3,254.5,359,254.2,358.8,253.1 z M268.8,282.1c-0.6,1-0.9,1.7-1.7,1.5c-0.9-0.3-3.8-0.2-5.2-0.6s-3.6-1.2-4-0.3c-0.4,1,1,1.7-1.4,1c-2.4-0.8-5-1.7-5.3-2.4 c-0.3-0.7,1-2.6-0.8-2.6c-1.7,0-4.2-0.1-4.9,0.4c-0.8,0.5-3.8,1.5-4.7,1.2c-0.9-0.2-2.2-0.5-0.7-1.1c1.5-0.6,3.4-0.3,3.6-1.1 c0.2-0.9-1.4-1,0.2-1.8c1.5-0.8,1-1.5,2-1.9c1.1-0.4,2.5-0.3,3.3-0.6c0.8-0.3-0.3-0.5,1.3,0.3c1.5,0.8,2.5,2.3,3.3,2.4 c0.8,0.1,1.3,0.6,0.8,1c-0.5,0.3-1.3,0.6-1.5,0.6c-0.3,0-0.5,0.7-0.2,0.8c0.3,0.1,1,1.2,1.4,0.9c0.5-0.3-0.2-0.9,0.7-1.2 c0.9-0.3,1.9-0.6,1.5-1.1c-0.4-0.5-0.8-1.1,0-0.8c0.8,0.3,1.7,0.3,0.8-0.5c-0.9-0.8-1.4-0.9-2.5-1.6c-1.1-0.7-2.2-1-2.2-1.6 c0-0.5-0.7-1.5,0.4-1.1c1.1,0.3,4.7,2.2,4.7,2.9c0,0.7,1,1.9,0.1,2.5c-0.9,0.6,0.9,0.8,1.3,1.1c0.4,0.3,0.2,1.3,1.3,1.1 c1.1-0.2,1.8-0.1,1.3-1c-0.6-1-1.5-1.4-0.6-1.7c1-0.3,1.2-0.8,1.4,0.7c0.3,1.5-0.1,2,2.2,2.1c2.3,0.1,3.9-0.5,4.1,0.1 C269,280,269.4,281.1,268.8,282.1z M272.6,275.6c-1.5-0.1-3.8,0-5.1,0c-1.3,0-2.5,0.3-2.5,0.3c-1.1-0.2-3.1-0.2-1.9-1.7 c1.3-1.5,0.5-3.4,2-2.9c1.5,0.5,1.6,2.4,2.6,1.2c1-1.2,2.1-2.5,2.3-1.5c0.3,1-1.4,1.7,0.7,2.5 C272.8,274.3,274.1,275.7,272.6,275.6z M282.1,279.3c-1.4,0-3.4-0.7-3.4-1.4c0-0.7-0.2-1.6-0.2-1.6c-0.5-2-2-2.2-2-3.3 s1.2-2,2.7-2c1.5,0,3.5,0,2.3,1.2c-1.2,1.2-3.4,1.1-1.8,3C281.3,277.2,283.5,279.3,282.1,279.3z" class="st15"/><path d="M334.7,291.5c0.8,0.2,1-2.6-0.4-2.3C332.9,289.6,333.8,291.3,334.7,291.5z" class="st15"/><path d="M336.4,300c0.6,0.4,0.8,1.1,0.6,2.2c-0.1,1.1-1.2,1,0.7,1.7c1.8,0.7,4,1.9,3.5-0.3c-0.5-2.2-0.1-2.4-2.1-4.1 c-2-1.7-2.1-0.6-2.3-2c-0.2-1.4-0.8-3.9-1.5-2.9c-0.7,0.9-1.2,1.2-0.4,2.6C335.7,298.7,335.8,299.6,336.4,300z" class="st15"/><path d="M332.3,303.5c-0.7,0.8-2,2.4-2.8,3c-0.9,0.6-2.4-0.2-2.3,1.2c0.1,1.4,0.2,2,0.3,2.9c0.1,1,0.3,1.6,2,1.6 c1.6,0,2.4,0.5,2.9,0.3c0.5-0.2,0.4-1.1,1.1-2.3c0.7-1.2,1.7-0.9,1.3-1.8c-0.4-0.9-0.4-0.7-0.4-1.6c0-0.9,0.5-0.3,0.2-1.8 C334.3,303.7,333.1,302.6,332.3,303.5z" class="st15"/><path d="M355.2,312.6c-1.4-1.4-3.8-2.4-4.8-2.3c-1,0.1-1.8,1.5-2.4,1c-0.5-0.5-2.2-2.8-3-2.2c-0.9,0.7,0.1,1.5-1,1.5 c-1.1,0-1.4,1.2-1.6-0.4c-0.2-1.6-1.1-2.4-1.3-1.2c-0.2,1.2-0.3,2-0.9,1.1c-0.5-0.9-0.9-0.3-0.9-1.2c0-0.9-2.2-1.9-3-0.9 c-0.5,0.6-0.8,0.7-1,2.1c-0.2,1.4-0.8,3.5,0.4,2.9c1.2-0.6,1.4-0.1,2-0.8c0.5-0.7,1.2-1.1,2.2-0.7c1,0.4,0.5,0.4,2.3,0.2 c1.7-0.2,2.6-0.2,3.8,0.5c1.2,0.7,3.6,0.3,3.6,1c0,0.7-2.5,1.2,0,1.9c2.5,0.7,3,2.3,3.8,1.5c0.8-0.8,1.8-1.9,2.6-1.1 c0.8,0.8,3.7,2.9,3.1,1.8c-0.5-1.2-0.4-2.3,1.3-3.5c1.7-1.3,1.3-1.9,0.5-1.9c-0.8,0-0.8,0.9-2.5,1.1 C356.7,313.2,356.6,313.9,355.2,312.6z" class="st15"/><path d="M356,325.2c-1-2.3-1-4-1.5-5c-0.5-1-0.1-2.2-1.7-2.2c-0.7,0-0.7,0.4-1.2,1.7c-0.5,1.3,0.1,3.6-1.3,3.3 c-1.4-0.3-2.1-0.9-2.4-2.2c-0.3-1.3,0.4-2.5-0.6-2.5c-1.1,0-4.1-0.7-4.9,0.4c-0.8,1.1,0.2,1.5-1.4,1.5c-1.6,0-2.3,0-3.1,1 c-0.9,1-2.1,3.7-6.7,3.9c-4.7,0.2-2.3,2.4-2.3,4.9c0,2.4-2.5,3.9-1.4,4.8c1.1,0.9-0.3,2.1,1.9,1.4c2.3-0.7,4.3-0.9,7.9-1.4 c3.6-0.5,5.2-0.7,5.3,0.9c0.1,1.6-0.4,0.5,1,0.8c1.4,0.3-0.1,2.4,1.5,2.5c1.6,0.2,0.3,1.6,1.7,1.6c1.4,0,1,1-0.2,1 c-1.2,0-1.2,2.8,0.5,2c1.7-0.8,3.1-1.5,3.1-2.7c0-1.2-0.2-1.3,1.8-2.7c2.1-1.5,6.8-5,6.5-7.8C358.1,327.7,356.9,327.5,356,325.2z" class="st15"/></g></g></svg>